<?xml version="1.0" standalone="no"?><!DOCTYPE svg PUBLIC "-//W3C//DTD SVG 1.1//EN" "http://www.w3.org/Graphics/SVG/1.1/DTD/svg11.dtd"><svg t="1758982710567" class="icon" viewBox="0 0 1024 1024" version="1.1" xmlns="http://www.w3.org/2000/svg" p-id="12299" xmlns:xlink="http://www.w3.org/1999/xlink" width="16" height="16"><path d="M753.777778 270.222222a28.444444 28.444444 0 0 1 28.444444 28.444445v49.777777h28.444445a78.222222 78.222222 0 0 1 78.222222 78.222223v156.444444a21.333333 21.333333 0 0 1-42.666667 0V426.666667a35.555556 35.555556 0 0 0-35.555555-35.555556h-28.444445V583.111111c0 94.250667-76.416 170.666667-170.666666 170.666667H412.444444c-94.250667 0-170.666667-76.416-170.666666-170.666667V298.666667a28.444444 28.444444 0 0 1 28.444444-28.444445h483.555556z m-355.555556 42.666667h-113.777778v270.222222a128 128 0 0 0 124.231112 127.943111L412.444444 711.111111h199.111112a128 128 0 0 0 128-128V312.888889H426.666667v72.903111c24.547556 6.328889 42.666667 28.586667 42.666666 55.096889v71.111111h-113.777777v-71.111111a56.917333 56.917333 0 0 1 42.666666-55.096889V312.888889z m14.222222 99.555555a28.444444 28.444444 0 0 0-28.444444 28.444445v42.666667h56.888889v-42.666667a28.444444 28.444444 0 0 0-26.311111-28.373333L412.444444 412.444444zM248.888889 824.888889h526.222222a21.333333 21.333333 0 0 1 0 42.666667h-526.222222a21.333333 21.333333 0 0 1 0-42.666667z m270.222222-689.777778A21.333333 21.333333 0 0 1 540.444444 156.444444v56.888889a21.333333 21.333333 0 0 1-42.666666 0v-56.888889a21.333333 21.333333 0 0 1 21.333333-21.333333z m-128 0A21.333333 21.333333 0 0 1 412.444444 156.444444v56.888889a21.333333 21.333333 0 0 1-42.666666 0v-56.888889a21.333333 21.333333 0 0 1 21.333333-21.333333z m256 0A21.333333 21.333333 0 0 1 668.444444 156.444444v56.888889a21.333333 21.333333 0 0 1-42.666666 0v-56.888889a21.333333 21.333333 0 0 1 21.333333-21.333333z" fill="#000000" fill-opacity=".9" p-id="12300"></path></svg>