<?xml version="1.0" standalone="no"?><!DOCTYPE svg PUBLIC "-//W3C//DTD SVG 1.1//EN" "http://www.w3.org/Graphics/SVG/1.1/DTD/svg11.dtd"><svg t="1759048288079" class="icon" viewBox="0 0 1024 1024" version="1.1" xmlns="http://www.w3.org/2000/svg" p-id="3663" xmlns:xlink="http://www.w3.org/1999/xlink" width="16" height="16"><path d="M512.000013 0a512 512 0 1 0 512 512 512.498162 512.498162 0 0 0-512-512z m0 937.900973a425.984 425.984 0 1 1 425.984-425.984 426.482162 426.482162 0 0 1-425.984 426.039351z" p-id="3664"></path><path d="M711.347905 653.173622l-158.277189-158.27719V249.385514a42.952649 42.952649 0 0 0-85.794594 0v263.306378a42.952649 42.952649 0 0 0 12.592432 30.443243l170.841946 170.841946a43.008 43.008 0 0 0 60.886486-60.748108z" p-id="3665"></path></svg>