<?xml version="1.0" standalone="no"?><!DOCTYPE svg PUBLIC "-//W3C//DTD SVG 1.1//EN" "http://www.w3.org/Graphics/SVG/1.1/DTD/svg11.dtd"><svg t="1758979520318" class="icon" viewBox="0 0 1024 1024" version="1.1" xmlns="http://www.w3.org/2000/svg" p-id="5810" xmlns:xlink="http://www.w3.org/1999/xlink" width="16" height="16"><path d="M594.432 115.413333l262.186667 217.6a170.581333 170.581333 0 0 1 60.714666 130.517334v304.512a170.666667 170.666667 0 0 1-170.666666 170.624h-469.333334a170.666667 170.666667 0 0 1-170.666666-170.624v-304.512c0-50.346667 22.186667-98.090667 60.714666-130.517334l262.186667-217.6a128 128 0 0 1 164.864 0z m-118.741333 45.226667l-4.906667 3.712-262.144 217.6a106.666667 106.666667 0 0 0-37.674667 73.770667L170.666667 463.530667v304.512a106.666667 106.666667 0 0 0 99.669333 106.410666l6.997333 0.213334h341.333334v-160a32 32 0 1 1 64 0v160h64a106.666667 106.666667 0 0 0 106.453333-99.626667l0.213333-6.997333v-304.512c0-28.842667-11.690667-56.32-32.170666-76.288l-5.802667-5.290667-262.144-217.6a64 64 0 0 0-77.525333-3.754667z" fill="#939AB8" p-id="5811"></path></svg>