<?xml version="1.0" standalone="no"?><!DOCTYPE svg PUBLIC "-//W3C//DTD SVG 1.1//EN" "http://www.w3.org/Graphics/SVG/1.1/DTD/svg11.dtd"><svg t="1759048221956" class="icon" viewBox="0 0 1026 1024" version="1.1" xmlns="http://www.w3.org/2000/svg" p-id="2556" xmlns:xlink="http://www.w3.org/1999/xlink" width="16.03125" height="16"><path d="M769.770502 0a146.311326 146.311326 0 0 1 146.311326 146.311326v411.573435a255.800114 255.800114 0 0 1-90.61141 459.908842 267.68587 267.68587 0 0 1-55.93297 6.199238 252.537358 252.537358 0 0 1-137.222219-40.225128 255.893336 255.893336 0 0 1-8.856053-425.836341V146.311326A146.311326 146.311326 0 0 1 769.863724 0zM769.677281 289.173453a36.682706 36.682706 0 0 0-36.636095 36.636095l0.233054 3.216146v335.644428a109.535399 109.535399 0 1 0 73.132357 0l-0.186443-335.597818a36.682706 36.682706 0 0 0-36.542873-39.898851z" p-id="2557"></path><path d="M491.550589 33.326728v77.933271a33.419949 33.419949 0 1 0 66.793288 0V33.280117a33.419949 33.419949 0 0 0-66.793288 0zM197.296559 772.480921a33.419949 33.419949 0 0 1 47.263359 47.263359l-55.140586 55.187197a33.559782 33.559782 0 0 1-47.263359 0 33.559782 33.559782 0 0 1 0-47.30997z m316.487386-589.719943c12.11881 0 24.470674 1.16527 36.589484 2.237319l-0.046611 0.139832 2.377151-0.093221c18.690934 0 34.119111 13.890021 36.589485 31.928403l0.326275 4.987357a36.91576 36.91576 0 0 1-39.292911 36.822538l-1.957654-0.186443a36.91576 36.91576 0 0 1-1.072048-0.139833l3.076313 0.372887a295.978631 295.978631 0 0 0-36.589484-2.88987 255.753503 255.753503 0 0 0-73.178969 500.926353v0.279665l4.521249-0.233054c19.296875 0 35.237771 14.44935 37.568311 33.093674l0.279665 4.754302a37.847976 37.847976 0 0 1-51.92444 35.097938l8.716221 2.190708a328.699418 328.699418 0 0 1-255.147563-320.216251 329.678245 329.678245 0 0 1 329.165526-329.072304zM113.117439 478.692998a33.419949 33.419949 0 0 1 0 66.746677H35.184168a33.419949 33.419949 0 1 1 0-66.746677h77.933271zM187.042181 154.747883L242.136156 209.748636a33.419949 33.419949 0 0 1-47.263359 47.356581l-55.000754-55.187197A33.419949 33.419949 0 0 1 187.042181 154.794493z" p-id="2558"></path></svg>