<?xml version="1.0" standalone="no"?><!DOCTYPE svg PUBLIC "-//W3C//DTD SVG 1.1//EN" "http://www.w3.org/Graphics/SVG/1.1/DTD/svg11.dtd"><svg t="1758974162894" class="icon" viewBox="0 0 1024 1024" version="1.1" xmlns="http://www.w3.org/2000/svg" p-id="2408" xmlns:xlink="http://www.w3.org/1999/xlink" width="16" height="16"><path d="M745.80634795 939.42563047h-169.90775683a31.01163398 31.01163398 0 0 1-31.49912022-31.49912109v-271.34242471h-97.30978418v271.3424247c0 17.81200283-13.7246168 31.49912021-31.49912021 31.4991211h-167.24533096a94.72235537 94.72235537 0 0 1-94.4973624-94.53486094v-276.81727236h-17.84950137A73.68544336 73.68544336 0 0 1 62.0129375 494.08806289c0-19.19946445 6.86230839-37.01146641 20.54942578-50.69858466l319.30358643-338.46555147a138.14614336 138.14614336 0 0 1 194.58206806-5.51234619c1.34996221 2.73742383 2.73742383 4.12488458 5.47484678 5.51234618l319.26608701 338.46555147c28.7991958 28.76169727 27.41173506 75.3728959-1.34996221 104.13459229-13.7246168 13.68711826-32.88658183 20.54942666-52.08604541 20.54942666h-27.37423652v276.81727236a94.75985479 94.75985479 0 0 1-94.57235947 94.53486094z m-137.021175-62.99824131h137.021175a33.37406807 33.37406807 0 0 0 32.88658184-32.92408125v-306.92893184c0-17.84950136 13.68711826-31.53661963 31.49912109-31.53661963h58.94835381c4.12488458 0 8.2122706-2.73742383 9.59973223-6.86230839 1.34996221-4.12488458 1.34996221-8.2122706-2.77492237-12.33715518l-320.6160501-337.11558925a74.06043222 74.06043222 0 0 0-105.5220539-2.69992442 2.96241768 2.96241768 0 0 0-2.73742383 2.73742383l-319.30358555 337.11558838a10.76219912 10.76219912 0 0 0 0 15.03708047c2.73742383 2.73742383 5.47484678 2.73742383 8.24976914 2.73742382h50.66108614c17.81200283 0 31.49912021 13.7246168 31.49912021 31.53661963v308.31639258a33.37406807 33.37406807 0 0 0 32.92408125 32.88658183H386.75387128v-239.80580507c0-35.62400566 28.76169727-62.99824131 62.99824132-62.99824131h97.30978329c35.62400566 0 63.03573984 28.76169727 63.03574073 62.99824131l-1.3499622 239.80580507z" p-id="2409"></path></svg>