<?xml version="1.0" standalone="no"?><!DOCTYPE svg PUBLIC "-//W3C//DTD SVG 1.1//EN" "http://www.w3.org/Graphics/SVG/1.1/DTD/svg11.dtd"><svg t="1758982755133" class="icon" viewBox="0 0 1024 1024" version="1.1" xmlns="http://www.w3.org/2000/svg" p-id="13476" xmlns:xlink="http://www.w3.org/1999/xlink" width="16" height="16"><path d="M885.333333 874.666667h-149.696C857.237333 799.402667 938.666667 665.194667 938.666667 512c0-235.264-191.402667-426.666667-426.666667-426.666667S85.333333 276.736 85.333333 512c0 229.205333 181.802667 416.234667 408.704 425.749333 2.368 0.554667 4.778667 0.917333 7.296 0.917334h384a32 32 0 1 0 0-64zM149.333333 512c0-199.978667 162.688-362.666667 362.666667-362.666667s362.666667 162.688 362.666667 362.666667-162.688 362.666667-362.666667 362.666667S149.333333 711.978667 149.333333 512z" fill="#232323" p-id="13477"></path><path d="M413.952 429.034667a117.461333 117.461333 0 0 0-165.930667 0 117.44 117.44 0 0 0 0 165.930666 116.949333 116.949333 0 0 0 82.965334 34.304 117.034667 117.034667 0 0 0 82.986666-34.304 117.504 117.504 0 0 0-0.021333-165.930666z m-45.248 120.682666a53.397333 53.397333 0 0 1-75.434667 0 53.397333 53.397333 0 0 1 0-75.434666 53.162667 53.162667 0 0 1 37.717334-15.594667c13.653333 0 27.306667 5.205333 37.717333 15.594667a53.44 53.44 0 0 1 0 75.434666zM512 448.32c31.36 0 60.821333-12.202667 82.965333-34.346667a116.565333 116.565333 0 0 0 34.368-82.986666c0-31.338667-12.202667-60.8-34.368-82.965334-22.144-22.165333-51.626667-34.368-82.965333-34.368s-60.8 12.202667-82.965333 34.368a117.44 117.44 0 0 0 0 165.930667A116.565333 116.565333 0 0 0 512 448.32z m-37.717333-155.050667c10.090667-10.069333 23.488-15.616 37.717333-15.616s27.626667 5.546667 37.717333 15.616c10.090667 10.069333 15.616 23.466667 15.616 37.696 0 14.250667-5.546667 27.648-15.616 37.717334-20.16 20.138667-55.274667 20.138667-75.434666 0a53.376 53.376 0 0 1 0-75.413334zM594.965333 776a116.565333 116.565333 0 0 0 34.368-82.965333 116.522667 116.522667 0 0 0-34.368-82.965334c-22.144-22.165333-51.626667-34.346667-82.965333-34.346666s-60.8 12.202667-82.965333 34.368a117.44 117.44 0 0 0 0 165.930666A116.565333 116.565333 0 0 0 512 810.389333a116.778667 116.778667 0 0 0 82.965333-34.389333z m-120.682666-45.269333A53.376 53.376 0 0 1 512 639.701333c14.250667 0 27.626667 5.546667 37.717333 15.616 10.090667 10.069333 15.616 23.466667 15.616 37.717334 0 14.229333-5.546667 27.626667-15.616 37.717333-20.181333 20.117333-55.274667 20.117333-75.434666-0.021333zM610.069333 594.965333a116.48 116.48 0 0 0 82.965334 34.368 116.48 116.48 0 0 0 82.965333-34.368 117.44 117.44 0 0 0 0-165.930666 116.522667 116.522667 0 0 0-82.965333-34.368 116.48 116.48 0 0 0-82.965334 34.368 117.44 117.44 0 0 0 0 165.930666z m45.248-120.682666c10.090667-10.069333 23.466667-15.616 37.717334-15.616s27.626667 5.546667 37.717333 15.616a53.397333 53.397333 0 0 1 0 75.434666c-20.16 20.138667-55.253333 20.138667-75.413333 0a53.376 53.376 0 0 1-0.021334-75.434666z" fill="#232323" p-id="13478"></path></svg>