<?xml version="1.0" standalone="no"?><!DOCTYPE svg PUBLIC "-//W3C//DTD SVG 1.1//EN" "http://www.w3.org/Graphics/SVG/1.1/DTD/svg11.dtd"><svg t="1758975091753" class="icon" viewBox="0 0 1024 1024" version="1.1" xmlns="http://www.w3.org/2000/svg" p-id="4472" xmlns:xlink="http://www.w3.org/1999/xlink" width="16" height="16"><path d="M753.815866 890.847986a25.850718 25.850718 0 0 1 25.358684 26.494147 53.783119 53.783119 0 0 0 53.707421 53.707421 80.617905 80.617905 0 0 0 80.542208-80.504358v-26.72124a187.578562 187.578562 0 0 0-187.389318-187.35147h-427.691234A187.616411 187.616411 0 0 0 110.765065 863.823956v22.292932c-0.340639 33.306928-27.591762 30.884606-27.591762 30.884606a26.494147 26.494147 0 0 1-25.358683-26.494147v-26.72124a240.226217 240.226217 0 0 1 240.339763-240.301915h427.691234a240.226217 240.226217 0 0 1 240.301915 240.339764v26.72124a133.644048 133.644048 0 0 1-133.416956 133.454804 106.847111 106.847111 0 0 1-103.592115-81.185637s-15.328757-51.058007 24.601708-51.966377z m-241.853715-303.168741A293.857941 293.857941 0 0 1 304.285886 86.069341a293.857941 293.857941 0 0 1 415.579623 415.579623A291.927653 291.927653 0 0 1 511.962151 587.679245z m0-534.689739a240.983193 240.983193 0 0 0-170.319517 411.378408 241.021042 241.021042 0 1 0 170.319517-411.378408z m0 0" fill="#bfbfbf" p-id="4473"></path></svg>